<svg xmlns="http://www.w3.org/2000/svg" viewBox="0 0 600 400" role="img" aria-labelledby="hero-title hero-desc">
  <title id="hero-title">Abstract design workspace illustration</title>
  <desc id="hero-desc">Stylized illustration showing a monitor with wireframes, color swatches, and accessibility icons representing UX and accessibility design work.</desc>
  <rect width="600" height="400" fill="#f0f4f8"/>
  <rect x="80" y="60" width="440" height="280" rx="12" fill="#ffffff" stroke="#0d5c63" stroke-width="3"/>
  <rect x="100" y="80" width="400" height="30" rx="4" fill="#0d5c63"/>
  <circle cx="120" cy="95" r="6" fill="#c45c26"/>
  <circle cx="140" cy="95" r="6" fill="#e8b84a"/>
  <circle cx="160" cy="95" r="6" fill="#1b6b3a"/>
  <rect x="100" y="130" width="180" height="120" rx="4" fill="#e8f0fe" stroke="#005fcc" stroke-width="2" stroke-dasharray="8 4"/>
  <rect x="120" y="150" width="140" height="12" rx="2" fill="#0d5c63" opacity="0.6"/>
  <rect x="120" y="170" width="100" height="8" rx="2" fill="#3d3d56" opacity="0.4"/>
  <rect x="120" y="186" width="120" height="8" rx="2" fill="#3d3d56" opacity="0.4"/>
  <rect x="120" y="202" width="80" height="8" rx="2" fill="#3d3d56" opacity="0.4"/>
  <rect x="300" y="130" width="180" height="50" rx="4" fill="#0d5c63"/>
  <rect x="300" y="190" width="80" height="50" rx="4" fill="#c45c26"/>
  <rect x="390" y="190" width="90" height="50" rx="4" fill="#1b6b3a"/>
  <rect x="300" y="250" width="180" height="60" rx="4" fill="#fafafa" stroke="#c8c8d4" stroke-width="2"/>
  <circle cx="330" cy="280" r="16" fill="#005fcc"/>
  <text x="326" y="286" font-family="sans-serif" font-size="18" fill="white" font-weight="bold">A</text>
  <rect x="360" y="268" width="100" height="10" rx="2" fill="#3d3d56" opacity="0.5"/>
  <rect x="360" y="286" width="70" height="8" rx="2" fill="#3d3d56" opacity="0.3"/>
</svg>
