<svg xmlns="http://www.w3.org/2000/svg" viewBox="0 0 640 360" role="img" aria-labelledby="parks-title parks-desc">
  <title id="parks-title">Accessible Parks Search project preview</title>
  <desc id="parks-desc">Illustration of a map interface with park markers and a search bar for finding accessible parks in Iowa.</desc>
  <rect width="640" height="360" fill="#e6f4ea"/>
  <rect x="20" y="20" width="600" height="50" rx="6" fill="#ffffff" stroke="#1b6b3a" stroke-width="2"/>
  <rect x="40" y="35" width="300" height="20" rx="4" fill="#f0f4f8" stroke="#c8c8d4" stroke-width="1"/>
  <text x="50" y="50" font-family="sans-serif" font-size="12" fill="#3d3d56">Search accessible parks in Iowa...</text>
  <rect x="480" y="32" width="120" height="26" rx="4" fill="#1b6b3a"/>
  <text x="510" y="50" font-family="sans-serif" font-size="12" fill="white" font-weight="bold">Search</text>
  <rect x="20" y="90" width="380" height="250" rx="6" fill="#b8dfc4" stroke="#1b6b3a" stroke-width="2"/>
  <path d="M60 200 Q120 120 200 180 T340 160" fill="none" stroke="#1b6b3a" stroke-width="3"/>
  <circle cx="150" cy="170" r="12" fill="#c45c26" stroke="#ffffff" stroke-width="2"/>
  <circle cx="250" cy="150" r="12" fill="#0d5c63" stroke="#ffffff" stroke-width="2"/>
  <circle cx="300" cy="220" r="12" fill="#005fcc" stroke="#ffffff" stroke-width="2"/>
  <rect x="420" y="90" width="200" height="250" rx="6" fill="#ffffff" stroke="#c8c8d4" stroke-width="2"/>
  <rect x="440" y="110" width="160" height="14" rx="2" fill="#1b6b3a"/>
  <rect x="440" y="135" width="120" height="8" rx="2" fill="#3d3d56" opacity="0.4"/>
  <rect x="440" y="160" width="140" height="8" rx="2" fill="#3d3d56" opacity="0.3"/>
  <rect x="440" y="190" width="60" height="20" rx="4" fill="#e6f4ea" stroke="#1b6b3a" stroke-width="1"/>
  <text x="448" y="204" font-family="sans-serif" font-size="9" fill="#1b6b3a">Wheelchair</text>
  <rect x="510" y="190" width="70" height="20" rx="4" fill="#e6f4ea" stroke="#1b6b3a" stroke-width="1"/>
  <text x="518" y="204" font-family="sans-serif" font-size="9" fill="#1b6b3a">Accessible</text>
</svg>
